<svg width="16" height="16" viewBox="0 0 16 16" fill="none" xmlns="http://www.w3.org/2000/svg">
<circle cx="8" cy="8" r="7" fill="#FF0000"/>
<path d="M5.5 7.5L8.5 10.5L10.5 8.5L7.5 5.5L5.5 7.5Z" fill="#605B5B"/>
<path d="M7.79297 10.5L6.35352 11.9395C6.15827 12.1346 5.84173 12.1346 5.64648 11.9395L4.06055 10.3535C3.86538 10.1583 3.86538 9.84173 4.06055 9.64648L5.5 8.20703L7.79297 10.5ZM9.79297 8.5L8.5 9.79297L6.20703 7.5L7.5 6.20703L9.79297 8.5ZM9.64648 4.06055C9.84173 3.86539 10.1583 3.86539 10.3535 4.06055L11.9395 5.64648C12.1346 5.84173 12.1346 6.15827 11.9395 6.35352L10.5 7.79297L8.20703 5.5L9.64648 4.06055Z" stroke="black"/>
</svg>
